<mxfile host="app.diagrams.net" modified="2023-06-08T03:18:04.748Z" agent="Mozilla/5.0 (X11; Linux x86_64; rv:102.0) Gecko/20100101 Firefox/102.0" version="21.3.7" etag="ia8e1OELnz5O8FV7GB3Z" type="github">
  <diagram name="Page-1" id="ic3uRq8YOBX6fT146MsX">
    <mxGraphModel>
      <root>
        <mxCell id="0" />
        <mxCell id="1" parent="0" />
      </root>
    </mxGraphModel>
  </diagram>
</mxfile>
